<svg width="1116" height="153" viewBox="0 0 1116 153" fill="none" xmlns="http://www.w3.org/2000/svg">
<path d="M60.668 130.291H79.3076V22.2347H52.1199C24.8135 22.2347 10.448 36.3394 10.448 57.2574C10.448 73.8723 18.2837 83.6738 32.4118 93.7144L8.07349 130.291H28.2565L55.4441 89.4113L46.065 83.0762C34.5488 75.3066 28.9688 69.2105 28.9688 56.1816C28.9688 44.7066 37.042 36.9371 52.2386 36.9371H60.5493V130.291H60.668ZM420.756 131.845C429.186 131.845 435.24 130.291 439.752 127.064V112.003C435.122 115.23 429.542 117.262 421.825 117.262C408.646 117.262 403.304 106.982 403.304 90.8457C403.304 73.8723 409.952 65.1465 421.943 65.1465C429.067 65.1465 435.953 67.6566 439.633 69.9277V54.2691C435.834 52.1176 428.948 50.5637 419.925 50.5637C396.418 50.5637 384.308 67.5371 384.308 91.3238C384.308 117.382 396.18 131.845 420.756 131.845ZM305.951 125.032V109.971C300.252 113.796 290.635 117.262 281.731 117.262C268.315 117.262 263.21 110.927 262.498 97.898H306.782V88.0965C306.782 60.8433 294.909 50.6832 276.507 50.6832C254.068 50.5637 243.383 67.7762 243.383 91.4434C243.383 118.696 256.68 131.845 280.069 131.845C291.823 131.845 300.489 128.737 305.951 125.032ZM137.719 52.1176V83.0762H113.144V52.1176H94.7416V130.291H113.144V97.659H137.719V130.291H156.122V52.1176H137.719ZM238.872 115.708H230.68V52.1176H177.136V58.8113C177.136 77.9363 175.948 102.679 169.419 115.708H163.72V148.221H180.697V130.291H221.894V148.101H238.872V115.708ZM364.6 130.291H385.377L355.933 88.216L381.815 52.1176H363.294L337.412 88.216V52.1176H319.01V130.291H337.412V91.9215L364.6 130.291ZM276.151 65.1465C285.293 65.1465 288.023 72.7965 288.023 82.598V84.1519H262.379C262.854 71.7207 267.366 65.1465 276.151 65.1465ZM212.397 115.708H186.396C191.501 103.875 192.926 82.598 192.926 69.091V66.8199H212.397V115.708Z" fill="white"/>
<path d="M694.295 130.291H709.729L731.693 48.7707V130.291H749.264V22.2347H725.044L703.318 101.843L681.829 22.2347H657.134V130.291H672.45V48.7707L694.295 130.291ZM822.754 76.9801C822.754 57.9746 813.137 50.9222 793.785 50.9222C781.556 50.9222 772.059 54.7472 766.479 58.0941V73.5137C771.465 69.8082 782.269 65.7441 791.648 65.7441C800.434 65.7441 804.47 68.8519 804.47 77.2191V81.5223H801.502C773.365 81.5223 760.899 90.8457 760.899 106.743C760.899 122.641 770.515 131.486 784.643 131.486C795.447 131.486 800.077 127.9 803.639 124.195H804.351C804.47 126.227 805.182 128.857 805.776 130.411H823.703C823.11 124.075 822.754 117.621 822.754 111.286V76.9801ZM804.47 111.644C802.096 115.111 797.822 117.86 791.411 117.86C783.693 117.86 779.776 113.198 779.776 106.146C779.776 96.9418 786.068 93.7144 801.858 93.7144H804.47V111.644ZM854.571 52.1176H837.594V152.763H855.996V121.087C860.626 128.02 867.394 131.845 875.229 131.845C893.157 131.845 905.504 117.382 905.504 91.0848C905.504 65.0269 893.513 50.5637 876.179 50.5637C867.512 50.5637 860.389 54.6277 855.521 62.2777L854.571 52.1176ZM870.599 117.262C860.864 117.262 855.877 109.373 855.877 91.3238C855.877 73.1551 861.101 65.266 871.43 65.266C881.522 65.266 886.389 73.1551 886.389 91.2043C886.508 109.254 881.284 117.262 870.599 117.262ZM963.322 130.291H984.099L954.655 88.216L980.537 52.1176H962.016L936.134 88.216V52.1176H917.732V130.291H936.134V91.9215L963.322 130.291ZM1045.83 125.032V109.971C1040.14 113.796 1030.52 117.262 1021.62 117.262C1008.2 117.262 1003.09 110.927 1002.38 97.898H1046.67V88.0965C1046.67 60.8433 1034.79 50.6832 1016.39 50.6832C994.072 50.6832 983.386 67.8957 983.386 91.5629C983.386 118.816 996.683 131.964 1020.07 131.964C1031.83 131.845 1040.49 128.737 1045.83 125.032ZM1016.15 65.1465C1025.3 65.1465 1028.03 72.7965 1028.03 82.598V84.1519H1002.38C1002.86 71.7207 1007.25 65.1465 1016.15 65.1465ZM1111.96 66.7004V52.1176H1050.35V66.7004H1072.07V130.291H1090.48V66.7004H1111.96Z" fill="white"/>
<path d="M537.224 52.8586L532.118 86.7226L568.21 27.1029L595.873 36.5228C594.092 42.7233 592.074 50.1161 590.53 57.1512C588.868 64.4248 587.681 71.4599 587.681 76.8257C587.681 79.449 587.918 81.7145 588.631 83.5031C588.987 84.3378 589.462 85.1725 590.055 85.7687C590.649 86.3649 591.361 86.8418 592.192 87.0803C592.549 87.1995 593.024 87.1996 593.38 87.1996C594.804 87.1996 596.348 86.6033 597.891 85.6494C600.741 83.8608 603.946 80.7606 607.389 76.7065C610.595 72.8908 613.919 68.3597 617.362 63.2324C611.307 29.8454 582.338 4.56665 547.315 4.56665C508.018 4.56665 476.081 36.642 476.081 76.1103C476.081 80.9991 476.556 85.7687 477.506 90.419L512.41 44.2734L537.224 52.8586Z" fill="#FFE033"/>
<path d="M611.307 104.61C607.983 107.234 604.54 109.38 601.097 110.811C597.654 112.242 594.092 113.076 590.53 113.076C588.156 113.076 585.781 112.719 583.288 112.003C579.608 110.93 576.64 109.261 574.384 107.353C570.941 104.491 568.685 100.914 567.379 97.0983C566.073 93.2826 565.598 89.2285 565.598 85.4128C565.598 81.3587 566.073 77.543 566.548 74.8005L567.142 70.9849L534.493 125L509.442 116.415L514.429 80.4048L487.953 115.58C500.657 134.897 522.502 147.656 547.434 147.656C577.352 147.656 602.878 129.174 613.444 102.941C612.732 103.537 612.019 104.133 611.307 104.61Z" fill="#FFE033"/>
<path d="M509.443 116.413L534.494 124.998L567.262 71.2214L566.668 75.037C566.193 77.7795 565.718 81.5952 565.718 85.6493C565.718 89.465 566.193 93.5191 567.499 97.3348C568.805 101.15 570.942 104.728 574.504 107.589C576.878 109.497 579.728 111.047 583.408 112.24C585.783 112.955 588.276 113.313 590.65 113.313C594.212 113.313 597.774 112.478 601.217 111.047C604.66 109.616 608.103 107.47 611.427 104.847C612.139 104.37 612.733 103.774 613.445 103.178C616.769 94.8308 618.669 85.7686 618.669 76.3487C618.669 71.9368 618.313 67.6442 617.482 63.4708C614.039 68.5981 610.596 73.2484 607.509 76.9449C604.066 80.999 600.861 84.0992 598.011 85.8878C596.349 86.8417 594.924 87.4379 593.5 87.4379C593.143 87.4379 592.669 87.4379 592.312 87.3187C591.481 87.0802 590.769 86.6033 590.175 86.0071C589.582 85.4109 589.107 84.5762 588.751 83.7415C588.038 81.9529 587.801 79.6874 587.801 77.0641C587.801 71.5791 588.988 64.6632 590.65 57.3896C592.312 50.2352 594.331 42.9616 595.993 36.7612L568.212 27.222L532.12 86.8417L537.225 52.9777L512.53 44.3925L477.507 90.4189C479.406 99.4811 482.968 108.066 487.836 115.459L514.311 80.2836L509.443 116.413Z" fill="black"/>
</svg>
